<svg width="20" height="22" viewBox="0 0 20 22" fill="none" xmlns="http://www.w3.org/2000/svg">
<rect width="20" height="22" fill="#767676"/>
<rect id="Rectangle 1020" x="-1083" y="-307" width="1440" height="1632" fill="#F1F0F0"/>
<g id="Group 1641">
<rect id="Rectangle 1022" x="-780.75" y="-29.75" width="836.5" height="82.5" rx="5.75" stroke="#676767" stroke-width="0.5"/>
<path id="Vector" d="M3 7V17C3 19.2091 4.79086 21 7 21H13C15.2091 21 17 19.2091 17 17V7M12 10V16M8 10L8 16M14 4L12.5937 1.8906C12.2228 1.3342 11.5983 1 10.9296 1H9.07037C8.40166 1 7.7772 1.3342 7.40627 1.8906L6 4M14 4H6M14 4H19M6 4H1" stroke="#7B7B7B" stroke-width="1.5" stroke-linecap="round" stroke-linejoin="round"/>
</g>
</svg>
