<svg width="12" height="12" viewBox="0 0 12 12" fill="none" xmlns="http://www.w3.org/2000/svg">
    <path d="M8.50854 3.01221C9.50714 3.70623 10.1962 4.80968 10.336 6.08288" stroke="#464646" stroke-width="0.6" stroke-linecap="round" stroke-linejoin="round"/>
    <path d="M1.78296 6.10806C1.91278 4.83982 2.59182 3.73637 3.58044 3.03735" stroke="#464646" stroke-width="0.6" stroke-linecap="round" stroke-linejoin="round"/>
    <path d="M4.12964 10.3867C4.70883 10.6813 5.3679 10.8461 6.06193 10.8461C6.73099 10.8461 7.36011 10.6963 7.92431 10.4217" stroke="#464646" stroke-width="0.6" stroke-linecap="round" stroke-linejoin="round"/>
    <path d="M6.06187 3.7761C6.82849 3.7761 7.44992 3.15466 7.44992 2.38805C7.44992 1.62145 6.82849 1 6.06187 1C5.29529 1 4.67383 1.62145 4.67383 2.38805C4.67383 3.15466 5.29529 3.7761 6.06187 3.7761Z" stroke="#464646" stroke-width="0.6" stroke-linecap="round" stroke-linejoin="round"/>
    <path d="M2.45202 9.87767C3.21862 9.87767 3.84007 9.25619 3.84007 8.48961C3.84007 7.72299 3.21862 7.10156 2.45202 7.10156C1.68542 7.10156 1.06396 7.72299 1.06396 8.48961C1.06396 9.25619 1.68542 9.87767 2.45202 9.87767Z" stroke="#464646" stroke-width="0.6" stroke-linecap="round" stroke-linejoin="round"/>
    <path d="M9.61193 9.87767C10.3786 9.87767 11 9.25619 11 8.48961C11 7.72299 10.3786 7.10156 9.61193 7.10156C8.84536 7.10156 8.22388 7.72299 8.22388 8.48961C8.22388 9.25619 8.84536 9.87767 9.61193 9.87767Z" stroke="#464646" stroke-width="0.6" stroke-linecap="round" stroke-linejoin="round"/>
</svg>
